# xmcd
#
# Track frame offsets:
#	150
#	21562
#	43957
#	64522
#	86702
#	106315
#	129620
#	149422
#	169272
#	188477
#
# Disc length: 2793 seconds
#
# Revision: 12
# Processed by: cddbd v1.5.2PL0 Copyright (c) Steve Scherf et al.
# Submitted via: Jack! The Knife 20 Magnifico
#
DISCID=8f0ae70a
DTITLE=Pooh - Giorni Infiniti
DYEAR=1986
DGENRE=Pop
TTITLE0=Giorni Infiniti
TTITLE1=L'altra Parte Del Cielo
TTITLE2=I Bambini Ci Guardano
TTITLE3=Più Amo Più Ti Amo
TTITLE4=Terry B.
TTITLE5=Amore e Dintorni
TTITLE6=C'est Difficile Mais C'est La Vie
TTITLE7=Venti
TTITLE8=Non Si Può Rifare Il Mondo In Due
TTITLE9=Goodbye
EXTD=Fio Zanotti
EXTT0=Facchinetti, Negrini
EXTT1=Facchinetti, Negrini
EXTT2=Battaglia, Negrini
EXTT3=Facchinetti, Negrini
EXTT4=Facchinetti, Negrini
EXTT5=Canzian, D'Orazio
EXTT6=Facchinetti, Negrini
EXTT7=Battaglia, Negrini
EXTT8=Facchinetti, Negrini
EXTT9=Facchinetti, D'Orazio
PLAYORDER=
